<?xml version="1.0" standalone="no"?>
<!DOCTYPE svg PUBLIC "-//W3C//DTD SVG 20010904//EN"
 "http://www.w3.org/TR/2001/REC-SVG-20010904/DTD/svg10.dtd">
<svg version="1.0" xmlns="http://www.w3.org/2000/svg"
 width="119.000000pt" height="103.000000pt" viewBox="0 0 119.000000 103.000000"
 preserveAspectRatio="xMidYMid meet">

<g transform="translate(0.000000,103.000000) scale(0.100000,-0.100000)"
fill="#000000" stroke="none">
<path d="M391 1004 c-25 -32 -26 -63 -6 -130 8 -27 15 -73 15 -101 0 -52 -1
-53 -42 -74 -26 -14 -68 -24 -108 -26 -54 -4 -73 0 -109 19 -79 41 -102 133
-61 238 25 64 25 78 1 56 -30 -27 -73 -144 -78 -211 -4 -49 0 -68 19 -104 35
-67 65 -85 154 -89 68 -4 81 -1 139 27 93 46 145 128 145 228 0 45 -27 172
-40 186 -4 5 -17 -4 -29 -19z"/>
<path d="M201 888 c-17 -18 -31 -37 -31 -42 0 -6 16 -21 34 -33 l35 -22 31 35
c30 35 31 37 13 56 -35 39 -49 40 -82 6z"/>
<path d="M987 592 c-33 -34 -33 -39 -4 -63 28 -24 36 -23 63 2 l23 21 29 -21
c35 -24 54 -20 78 17 16 25 16 26 -10 49 -35 30 -39 29 -70 -8 -16 -19 -26
-25 -26 -15 0 13 -36 46 -50 46 -4 0 -18 -13 -33 -28z"/>
<path d="M243 551 l-33 -33 0 -159 c0 -181 8 -211 65 -235 43 -17 88 -17 139
1 38 13 41 13 69 -11 24 -20 39 -24 75 -22 61 4 86 37 86 112 1 49 -3 59 -33
90 -50 51 -73 48 -135 -20 -56 -62 -97 -85 -138 -77 -49 9 -53 23 -58 211 l-5
176 -32 -33z m342 -343 c23 -28 25 -32 10 -40 -37 -21 -115 22 -102 57 11 27
62 18 92 -17z"/>
<path d="M781 467 c-40 -20 -64 -71 -69 -151 -4 -70 -3 -74 23 -94 15 -12 49
-25 76 -28 42 -6 47 -9 37 -21 -6 -8 -38 -28 -69 -44 -46 -23 -59 -35 -69 -64
-7 -20 -9 -43 -6 -51 13 -35 180 83 206 146 12 29 15 30 78 30 87 0 143 27
177 84 28 47 30 80 14 156 -11 53 -16 57 -41 38 -31 -26 -47 -60 -38 -83 4
-12 10 -42 12 -66 l3 -44 -90 0 -89 0 -8 42 c-9 55 -41 116 -74 142 -31 24
-40 25 -73 8z m76 -122 c13 -22 23 -43 23 -47 0 -5 -19 -8 -43 -8 -72 0 -110
45 -71 85 28 27 66 15 91 -30z"/>
</g>
</svg>
